<svg width="80" height="80" viewBox="0 0 80 80" fill="none" xmlns="http://www.w3.org/2000/svg">
<path d="M72.8909 77.6233C66.452 74.5453 57.2252 70.8778 54.4969 70.3119C53.2102 70.045 52.9511 70.0778 50.8968 70.7669C46.8395 72.1281 44.9076 72.4172 39.869 72.4173C34.6369 72.4174 33.19 72.1989 28.7702 70.7411C25.8614 69.7816 20.6629 67.1722 20.7027 66.6916C20.7129 66.5694 22.0836 65.9048 23.7488 65.2147L26.7766 63.9599L27.9226 64.4025C30.7614 65.4989 31.7396 65.7965 34.0888 66.2785C37.1594 66.9085 41.5161 66.9588 44.7106 66.401C57.9209 64.0944 67.892 53.1528 69.1645 39.5671C70.4197 26.1652 61.9171 13.1214 49.1097 8.80115C42.2639 6.49188 34.5611 6.82274 27.8514 9.71425C20.3521 12.9461 14.1471 19.8383 11.5597 27.8101C8.26845 37.9508 10.5055 48.6454 17.641 56.883L19.3268 58.8291L17.9057 60.9355C17.1241 62.094 16.3978 63.0959 16.2918 63.1618C16.1041 63.2786 13.4608 60.6721 12.2418 59.1682C9.96989 56.3653 7.62482 52.0449 6.36457 48.3404C5.0398 44.4462 4.56368 41.4487 4.57038 37.0445C4.57976 30.8424 5.69025 26.2466 8.50243 20.7709C11.801 14.3481 17.715 8.48564 24.246 5.16431C32.2712 1.08316 42.1666 0.390678 50.8422 3.30313C62.7849 7.31235 72.053 17.9398 74.5538 30.4925C75.1655 33.563 75.1685 40.6154 74.5594 43.5441C73.1973 50.0926 69.646 57.0428 65.4218 61.4275C64.887 61.9827 64.4493 62.6214 64.4493 62.8468C64.4493 63.5452 66.0942 66.4774 67.9747 69.1313C69.4469 71.2089 71.2328 73.5243 75.1854 78.4795C75.5098 78.8861 75.6148 78.9254 72.891 77.6233H72.8909ZM14.3911 67.077C16.3814 64.6737 20.1213 59.3328 20.8029 57.9202L21.3193 56.85L19.7659 55.0327C16.6757 51.4177 14.9215 48.0083 13.6197 43.0874C13.279 41.7994 13.1786 40.4508 13.179 37.1695C13.1795 33.2955 13.24 32.7016 13.8638 30.4523C16.5728 20.6847 24.1773 13.1594 33.7525 10.771C36.6551 10.047 41.3576 9.87925 44.292 10.3951C51.8972 11.732 58.3049 15.9299 62.5533 22.3585C72.792 37.8518 64.6226 58.7863 46.4652 63.585C43.643 64.3309 38.2964 64.4982 35.3156 63.9339C34.1085 63.7054 32.3767 63.2442 31.4672 62.909L29.8135 62.2995L27.9514 62.8206C25.9686 63.3754 22.1012 64.9136 16.3461 67.4362L12.81 68.9861L14.3911 67.077ZM44.8949 58.6479C56.9684 56.1457 64.1963 44.1471 61.2111 31.5627C59.6178 24.846 54.6092 19.0876 48.2798 16.6954C45.306 15.5714 42.8906 15.2199 39.1464 15.3661C35.0905 15.5245 33.3633 15.94 30.0618 17.5514C23.9993 20.5105 20.1027 25.6472 18.6283 32.6236C18.4246 33.5875 18.2696 35.6502 18.2712 37.3734C18.2768 43.2965 20.063 48.0807 23.8095 52.208C28.9519 57.8732 36.9081 60.3031 44.8949 58.6479ZM25.2202 37.6695V30.7949H26.0892H26.9582V34.2289V37.6628L30.3754 34.2289L33.7925 30.7949H34.9633H36.1342L33.2851 33.6072L30.4361 36.4196L33.4114 40.4818L36.3867 44.5441L35.2105 44.5375L34.0343 44.5309L31.7998 41.2663C30.5708 39.4708 29.4808 37.948 29.3776 37.8823C29.2745 37.8167 28.6879 38.1773 28.0741 38.6836L26.9582 39.6043V42.074V44.5438H26.0892H25.2202V37.6695ZM38.0766 37.6697L38.1464 30.7949L38.9456 30.7949L39.7449 30.7949V36.857V42.9192L43.1588 42.9887L46.5727 43.0583V43.8012V44.544L42.2898 44.5442L38.0069 44.5444L38.0766 37.6697ZM48.8073 37.6695V30.7949H49.6763H50.5453V36.9195V43.0442H53.8971H57.2489V43.7941V44.5441H53.0281H48.8073V37.6695Z" fill="#415775"/>
</svg>
